<svg width="521" height="92" viewBox="0 0 521 92" fill="none" xmlns="http://www.w3.org/2000/svg">
<path d="M74.944 1.656V91H57.024V52.984H18.752V91H0.832001V1.656H18.752V38.392H57.024V1.656H74.944ZM147.366 73.976H111.782L105.894 91H87.078L119.206 1.52799H140.07L172.198 91H153.254L147.366 73.976ZM142.502 59.64L129.574 22.264L116.646 59.64H142.502ZM281.615 1.656V91H263.695V32.888L239.759 91H226.191L202.127 32.888V91H184.207V1.656H204.559L232.975 68.088L261.391 1.656H281.615ZM330.18 91.896C323.951 91.896 318.319 90.8293 313.284 88.696C308.335 86.5627 304.409 83.4907 301.508 79.48C298.607 75.4693 297.113 70.7333 297.028 65.272H316.228C316.484 68.9413 317.764 71.8427 320.068 73.976C322.457 76.1093 325.7 77.176 329.796 77.176C333.977 77.176 337.263 76.1947 339.652 74.232C342.041 72.184 343.236 69.5387 343.236 66.296C343.236 63.6507 342.425 61.4747 340.804 59.768C339.183 58.0613 337.135 56.7387 334.66 55.8C332.271 54.776 328.943 53.6667 324.676 52.472C318.873 50.7653 314.137 49.1013 310.468 47.48C306.884 45.7733 303.769 43.256 301.124 39.928C298.564 36.5147 297.284 31.992 297.284 26.36C297.284 21.0693 298.607 16.4613 301.252 12.536C303.897 8.61066 307.609 5.624 312.388 3.576C317.167 1.44267 322.628 0.375999 328.772 0.375999C337.988 0.375999 345.455 2.63733 351.172 7.16C356.975 11.5973 360.175 17.8267 360.772 25.848H341.06C340.889 22.776 339.567 20.2587 337.092 18.296C334.703 16.248 331.503 15.224 327.492 15.224C323.993 15.224 321.177 16.12 319.044 17.912C316.996 19.704 315.972 22.3067 315.972 25.72C315.972 28.1093 316.74 30.1147 318.276 31.736C319.897 33.272 321.86 34.552 324.164 35.576C326.553 36.5147 329.881 37.624 334.148 38.904C339.951 40.6107 344.687 42.3173 348.356 44.024C352.025 45.7307 355.183 48.2907 357.828 51.704C360.473 55.1173 361.796 59.5973 361.796 65.144C361.796 69.9227 360.559 74.36 358.084 78.456C355.609 82.552 351.983 85.8373 347.204 88.312C342.425 90.7013 336.751 91.896 330.18 91.896ZM385.268 91.896C382.025 91.896 379.337 90.9147 377.204 88.952C375.156 86.904 374.132 84.3867 374.132 81.4C374.132 78.4133 375.156 75.9387 377.204 73.976C379.337 71.928 382.025 70.904 385.268 70.904C388.425 70.904 391.028 71.928 393.076 73.976C395.124 75.9387 396.148 78.4133 396.148 81.4C396.148 84.3867 395.124 86.904 393.076 88.952C391.028 90.9147 388.425 91.896 385.268 91.896ZM465.366 73.976H429.782L423.894 91H405.078L437.206 1.52799H458.07L490.198 91H471.254L465.366 73.976ZM460.502 59.64L447.574 22.264L434.646 59.64H460.502ZM520.127 1.656V91H502.207V1.656H520.127Z" fill="white"/>
</svg>
